# xmcd
#
# Track frame offsets: 
#        150
#        20106
#        38383
#        57993
#        75978
#        93067
#        111488
#        128616
#        150709
#        166235
#        186522
#
# Disc length: 2617 seconds
#
# Revision: 0
# Processed by: cddbd v1.5.2PL0 Copyright (c) Steve Scherf et al.
# Submitted via: ExactAudioCopy v0.99pb5
#
DISCID=800a370b
DTITLE=Harvey Band - Green Flats Road
DYEAR=2002
DGENRE=Bluegrass
TTITLE0=Green Flats Road
TTITLE1=South Yard Train
TTITLE2=Glory Days
TTITLE3=Local Color
TTITLE4=Acoustic River
TTITLE5=Through The Gates
TTITLE6=Going Back
TTITLE7=Rattlesnake on the Quickway
TTITLE8=Beyond the Highlands
TTITLE9=Last Ride on the Old and Weary (N.Y.O.&W.)
TTITLE10=Hayseeds (solo guitar)
EXTD=
EXTT0=
EXTT1=
EXTT2=
EXTT3=
EXTT4=
EXTT5=
EXTT6=
EXTT7=
EXTT8=
EXTT9=
EXTT10=
PLAYORDER=
